<svg width="130" height="225" viewBox="0 0 130 225" fill="none" xmlns="http://www.w3.org/2000/svg">
<rect width="130" height="225" rx="20" fill="#DCDCDC"/>
<rect x="10" y="10" width="110" height="205" rx="20" fill="black"/>
<g clip-path="url(#clip0_5_5299)">
<g filter="url(#filter0_d_5_5299)">
<path d="M56 110C56 108.343 54.657 107 53 107C51.343 107 50 108.343 50 110V120C50 128.284 56.716 135 65 135C73.284 135 80 128.284 80 120V112C80 110.343 78.657 109 77 109C75.343 109 74 110.343 74 112V110C74 108.343 72.657 107 71 107C69.343 107 68 108.343 68 110V108C68 106.343 66.657 105 65 105C63.343 105 62 106.343 62 108V94C62 92.343 60.657 91 59 91C57.343 91 56 92.343 56 94V117V110Z" stroke="white" stroke-width="4" stroke-miterlimit="10" stroke-linecap="round" stroke-linejoin="round" shape-rendering="crispEdges"/>
</g>
<path d="M78 104V90" stroke="#B3FF01" stroke-width="2" stroke-miterlimit="10" stroke-linecap="round" stroke-linejoin="round"/>
<path d="M81 93L78 90L75 93" stroke="#B3FF01" stroke-width="2" stroke-miterlimit="10" stroke-linecap="round" stroke-linejoin="round"/>
</g>
<rect x="20" y="186" width="90" height="19" rx="9.5" fill="#B3FF01"/>
<rect x="20" y="171" width="40" height="5" rx="2.5" fill="#9B9B9B"/>
<rect x="105" y="176" width="20" height="5" rx="2.5" transform="rotate(-90 105 176)" fill="#9B9B9B"/>
<defs>
<filter id="filter0_d_5_5299" x="44" y="89" width="42" height="56" filterUnits="userSpaceOnUse" color-interpolation-filters="sRGB">
<feFlood flood-opacity="0" result="BackgroundImageFix"/>
<feColorMatrix in="SourceAlpha" type="matrix" values="0 0 0 0 0 0 0 0 0 0 0 0 0 0 0 0 0 0 127 0" result="hardAlpha"/>
<feOffset dy="4"/>
<feGaussianBlur stdDeviation="2"/>
<feComposite in2="hardAlpha" operator="out"/>
<feColorMatrix type="matrix" values="0 0 0 0 0 0 0 0 0 0 0 0 0 0 0 0 0 0 0.1 0"/>
<feBlend mode="normal" in2="BackgroundImageFix" result="effect1_dropShadow_5_5299"/>
<feBlend mode="normal" in="SourceGraphic" in2="effect1_dropShadow_5_5299" result="shape"/>
</filter>
<clipPath id="clip0_5_5299">
<rect width="50" height="50" fill="white" transform="translate(40 88)"/>
</clipPath>
</defs>
</svg>
