<svg width="55" height="39" viewBox="0 0 55 39" fill="none" xmlns="http://www.w3.org/2000/svg">
<path d="M18.5 9.5L27.5 2.5L36.5 9.5V20.5C36.5 21.0304 36.2893 21.5391 35.9142 21.9142C35.5391 22.2893 35.0304 22.5 34.5 22.5H20.5C19.9696 22.5 19.4609 22.2893 19.0858 21.9142C18.7107 21.5391 18.5 21.0304 18.5 20.5V9.5Z" fill="white" stroke="#DCDCDC" stroke-width="2" stroke-linecap="round" stroke-linejoin="round"/>
<path d="M24.5 22.5V12.5H30.5V22.5" stroke="#DCDCDC" stroke-width="2" stroke-linecap="round" stroke-linejoin="round"/>
<path d="M14.1663 36.5H15.4263V33.5H18.7463V36.5H20.0163V29.05H18.7463V32.39H15.4263V29.05H14.1663V36.5ZM23.7936 36.62C25.3636 36.62 26.6236 35.43 26.6236 33.8C26.6236 32.17 25.3736 30.99 23.7936 30.99C22.2036 30.99 20.9636 32.17 20.9636 33.8C20.9636 35.43 22.2136 36.62 23.7936 36.62ZM23.7936 35.51C22.8736 35.51 22.2136 34.8 22.2136 33.81C22.2136 32.82 22.8736 32.1 23.7936 32.1C24.7036 32.1 25.3736 32.82 25.3736 33.81C25.3736 34.8 24.7036 35.51 23.7936 35.51ZM33.3845 30.99C32.6445 30.99 32.0245 31.33 31.7045 31.88C31.3645 31.32 30.7745 30.99 30.0545 30.99C29.4045 30.99 28.8845 31.26 28.6045 31.77V31.11H27.4745V36.5H28.6745V33.3C28.6745 32.55 29.0945 32.1 29.7245 32.1C30.3645 32.1 30.7845 32.55 30.7845 33.3V36.5H31.9845V33.3C31.9845 32.55 32.4145 32.1 33.0445 32.1C33.6845 32.1 34.1045 32.55 34.1045 33.3V36.5H35.3045V33C35.3045 31.8 34.5045 30.99 33.3845 30.99ZM41.3313 33.61C41.3313 32.18 40.2513 30.99 38.7313 30.99C37.2113 30.99 36.0613 32.18 36.0613 33.8C36.0613 35.38 37.1913 36.62 38.8213 36.62C39.9213 36.62 40.8013 36.06 41.1313 35.29L40.1413 34.81C39.9013 35.25 39.4713 35.56 38.8313 35.56C38.0013 35.56 37.3713 35.01 37.3113 34.15H41.2713C41.3113 33.99 41.3313 33.8 41.3313 33.61ZM37.3313 33.22C37.4713 32.43 38.0313 31.99 38.7313 31.99C39.4213 31.99 40.0013 32.5 40.0413 33.22H37.3313Z" fill="#DCDCDC"/>
</svg>
